<?xml version="1.0" encoding="UTF-8" standalone="no"?>
<!-- Created with Inkscape (http://www.inkscape.org/) -->

<svg
   xmlns:dc="http://purl.org/dc/elements/1.1/"
   xmlns:cc="http://creativecommons.org/ns#"
   xmlns:rdf="http://www.w3.org/1999/02/22-rdf-syntax-ns#"
   xmlns:svg="http://www.w3.org/2000/svg"
   xmlns="http://www.w3.org/2000/svg"
   xmlns:sodipodi="http://sodipodi.sourceforge.net/DTD/sodipodi-0.dtd"
   xmlns:inkscape="http://www.inkscape.org/namespaces/inkscape"
   width="48"
   height="48"
   viewBox="0 0 12.7 12.7"
   version="1.1"
   id="svg8"
   inkscape:version="0.92.3 (2405546, 2018-03-11)"
   sodipodi:docname="draft3.svg">
  <defs
     id="defs2" />
  <sodipodi:namedview
     id="base"
     pagecolor="#ffffff"
     bordercolor="#666666"
     borderopacity="1.0"
     inkscape:pageopacity="0.0"
     inkscape:pageshadow="2"
     inkscape:zoom="8"
     inkscape:cx="15.072486"
     inkscape:cy="27.381568"
     inkscape:document-units="mm"
     inkscape:current-layer="layer3"
     showgrid="false"
     inkscape:snap-grids="true"
     inkscape:snap-to-guides="false"
     inkscape:snap-intersection-paths="true"
     inkscape:window-width="1920"
     inkscape:window-height="1012"
     inkscape:window-x="-8"
     inkscape:window-y="-8"
     inkscape:window-maximized="1"
     units="px" />
  <metadata
     id="metadata5">
    <rdf:RDF>
      <cc:Work
         rdf:about="">
        <dc:format>image/svg+xml</dc:format>
        <dc:type
           rdf:resource="http://purl.org/dc/dcmitype/StillImage" />
        <dc:title></dc:title>
      </cc:Work>
    </rdf:RDF>
  </metadata>
  <g
     inkscape:groupmode="layer"
     id="layer3"
     inkscape:label="m"
     transform="translate(0,-284.3)">
    <path
       style="fill:#e6e6e6;fill-opacity:1;stroke:#ffffff;stroke-width:0.03098173"
       d="m 3.6239973,291.63794 v -5.31341 l 1.0436613,-0.66078 1.0436615,-0.66077 1.1908831,4.87748 c 0.6549848,2.68262 1.19721,4.88458 1.2049413,4.89327 0.017767,0.0199 -0.1377368,0.64756 1.262234,-5.09426 0.6691885,-2.74461 1.2365655,-5.06777 1.2608335,-5.16256 l 0.04412,-0.17236 h 1.006612 1.006612 v 3.08331 3.0833 l -0.635913,0.69159 -0.63591,0.6916 -0.01461,-2.45348 c -0.01418,-2.37944 -0.01629,-2.45348 -0.06995,-2.45348 -0.04861,0 -0.159461,0.42706 -0.911813,3.51283 -0.4710586,1.93206 -0.867175,3.54502 -0.8802568,3.58436 -0.03111,0.0936 -2.1824599,2.22663 -2.1968442,2.17817 -0.00606,-0.0204 -0.5139648,-2.09717 -1.1286826,-4.61503 -0.6147189,-2.51786 -1.1255159,-4.58674 -1.1351048,-4.59751 -0.00962,-0.0108 -0.044741,-0.01 -0.078112,0.002 l -0.060681,0.0217 v 4.93874 4.93874 H 4.281842 3.6240031 Z"
       id="path1486"
       inkscape:connector-curvature="0" />
  </g>
  <g
     inkscape:label="Layer 1"
     inkscape:groupmode="layer"
     id="layer1"
     transform="translate(0,-284.3)" />
  <g
     inkscape:groupmode="layer"
     id="layer2"
     inkscape:label="template"
     transform="translate(0,-284.3)">
    <path
       style="fill:#4169e1;fill-opacity:1;stroke-width:0.0208471"
       d="m 5.6407975,293.8675 v -3.13631 H 3.3342149 1.0276324 v 1.00172 1.00173 l -0.47460584,0.57199 c -0.26103289,0.31459 -0.47569683,0.56689 -0.4770314,0.5607 -0.0013387,-0.006 -0.01792807,-1.09812 -0.03687074,-2.42647 l -0.0344436,-2.41519 0.51147538,-0.61805 0.5114762,-0.61805 v 0.8756 0.87559 h 2.3350591 2.3350588 v -2.62122 -2.62123 h 0.512574 0.5125738 v 6.35274 6.35276 H 6.1818477 5.6407975 Z"
       id="path1280"
       inkscape:connector-curvature="0" />
  </g>
</svg>
